inDegrees=yes
name=ik_data_dance
DataType=double
version=3
OpenSimVersion=4.5
endheader
time	pelvis_tilt	pelvis_list	pelvis_rotation	pelvis_tx	pelvis_ty	pelvis_tz	hip_flexion_r	hip_adduction_r	hip_rotation_r	knee_angle_r	knee_angle_r_beta	ankle_angle_r	subtalar_angle_r	mtp_angle_r	hip_flexion_l	hip_adduction_l	hip_rotation_l	knee_angle_l	knee_angle_l_beta	ankle_angle_l	subtalar_angle_l	mtp_angle_l	lumbar_extension	lumbar_bending	lumbar_rotation	arm_flex_r	arm_add_r	arm_rot_r	elbow_flex_r	pro_sup_r	wrist_flex_r	wrist_dev_r	arm_flex_l	arm_add_l	arm_rot_l	elbow_flex_l	pro_sup_l	wrist_flex_l	wrist_dev_l
75	24.79061533701153	-26.46373398726849	-23.56332492223386	0	0.9399999999999999	0	44.66578412252294	-9.987422400023767	0	60.18179198644278	1.050370419913765	-4.996885869480099	0	0	44.66578412252294	-9.987422400023767	0	60.18179198644278	1.050370419913765	-4.996885869480099	0	0	35.63092782996837	-9.455928402416564	-27.6106519168582	26.65288395105199	-1.213366357444884	-31.82075144720001	43.57932024337688	44.98448939487785	0	5.38806921148701e-36	0	-13.50264147589956	0	75.01227409619526	44.98448939487785	0	5.38806921148701e-36
76	23.70051166133042	-26.69799577195098	-26.97605910374867	0	0.9399999999999999	0	44.67518462940909	-9.988269226399709	0	60.17666209029289	1.050280886335664	-4.997137017700658	0	0	44.67518462940909	-9.988269226399709	0	60.17666209029289	1.050280886335664	-4.997137017700658	0	0	33.1064889259512	-12.91797731736189	-28.97321838458613	25.82112409779729	-6.474999629834128	-31.17920897947971	29.92966592223372	44.98537912187118	0	-1.356075443758819e-56	0	-13.52836494570141	0	75.01193381225927	44.98537912187118	0	-1.356075443758819e-56
77	19.86670134623042	-24.95121193549738	-30.4892027845091	0	0.9399999999999999	0	44.68623405676974	-9.989255074849002	0	60.17067388465421	1.050176372430983	-4.997427882332408	0	0	44.68623405676974	-9.989255074849002	0	60.17067388465421	1.050176372430983	-4.997427882332408	0	0	27.3544344179196	-15.94326969356617	-29.93724132949174	22.21941429334629	-12.45792970271408	-29.68112598958934	14.38128847678472	44.98641819021077	0	4.394849012450184e-91	0	-13.55865711455768	0	75.01153383985282	44.98641819021077	0	4.394849012450184e-91
78	14.97670478617241	-22.22565065314494	-32.86439676659133	0	0.9399999999999999	0	44.69415867117707	-9.989932883643229	0	60.16639737416084	1.050101733242377	-4.997624664627849	0	0	44.69415867117707	-9.989932883643229	0	60.16639737416084	1.050101733242377	-4.997624664627849	0	0	20.81405427806574	-17.70559446412444	-29.93384095604545	17.51246716184196	-17.12458854469434	-27.32150391049299	0.07605047113789254	44.98714086820452	0	1.16121047276371e-36	0	-13.58060197422694	0	75.01124698068961	44.98714086820452	0	1.16121047276371e-36
79	10.52070499838738	-16.82547495210413	-34.53033682210484	0	0.9399999999999999	0	44.70196761180465	-9.990551518037831	0	60.1621548679626	1.050027687540682	-4.997799642612147	0	0	44.70196761180465	-9.990551518037831	0	60.1621548679626	1.050027687540682	-4.997799642612147	0	0	13.43313726850779	-16.54451077465468	-29.91748429359496	10.34388511395407	-19.93680514768381	-24.64707293194641	0.01206705240736772	44.98781353995778	0	0	0	-13.6026713902842	0	75.01096430836513	44.98781353995778	0	0
80	5.885548697719015	-13.39637922887934	-34.10497954031042	0	0.9399999999999999	0	44.70693913554349	-9.990929846785903	0	60.15945407260701	1.049980549769304	-4.997905199594652	0	0	44.70693913554349	-9.990929846785903	0	60.15945407260701	1.049980549769304	-4.997905199594652	0	0	7.700345451110262	-16.06714465824666	-28.09673303628655	5.489014641791343	-21.94474867728905	-21.04514739115645	0.01190522756214959	44.98822915365685	0	0	0	-13.61687687249204	0	75.01078434629463	44.98822915365685	0	0
81	2.048089791717071	-11.37002679956687	-30.78201459437576	0	0.9399999999999999	0	44.71291626160296	-9.991379360171424	0	60.15620874779051	1.049923908165959	-4.998030128688692	0	0	44.71291626160296	-9.991379360171424	0	60.15620874779051	1.049923908165959	-4.998030128688692	0	0	4.016603809032328	-15.59765292402636	-23.99434376893612	3.073755847471129	-22.53078244939807	-16.32840135557302	0.01357997293105554	44.9887243888842	0	2.428516971917655e-36	0	-13.63402334853681	0	75.01056798280074	44.9887243888842	0	2.428516971917655e-36
82	-0.600154895513953	-9.031780903919373	-26.4310881789595	0	0.9399999999999999	0	44.71834007324585	-9.991771621614909	0	60.15326077541319	1.049872456341717	-4.998137660313025	0	0	44.71834007324585	-9.991771621614909	0	60.15326077541319	1.049872456341717	-4.998137660313025	0	0	1.283100131168127	-14.17172449065962	-19.17972878112252	1.239009602943539	-21.68112038468037	-11.23166322140422	0.01907085674689907	44.98916096492763	0	-1.024931745040145e-36	0	-13.64974306662803	0	75.01037164838597	44.98916096492763	0	-1.024931745040145e-36
83	-1.86235063405065	-6.193041432936511	-21.35853080722256	0	0.9399999999999999	0	44.72284986615322	-9.992084887207328	0	60.15080494241933	1.049829593970095	-4.998222343445885	0	0	44.72284986615322	-9.992084887207328	0	60.15080494241933	1.049829593970095	-4.998222343445885	0	0	-0.4059729390058757	-11.75473891491681	-13.86751033563776	0.1163518562704961	-19.44377156528785	-5.907428271026202	0.04416717222419973	44.98951327430552	0	0	0	-13.66295417279515	0	75.01020840007595	44.98951327430552	0	0
84	-2.910172145696575	-3.332117466065924	-16.88382853067113	0	0.9399999999999999	0	44.72761538564859	-9.992407352282033	0	60.14820712064729	1.049784253426793	-4.998308748087704	0	0	44.72761538564859	-9.992407352282033	0	60.14820712064729	1.049784253426793	-4.998308748087704	0	0	-1.988331367435153	-9.305468691716419	-9.159663536169369	-1.082008592325315	-17.17325121720948	-1.113966099690828	2.197229493488616	44.98987834016373	0	0	0	-13.67701812473398	0	75.01003589474529	44.98987834016373	0	0
85	-3.846390452122586	-1.079867946265804	-13.76510964789136	0	0.9399999999999999	0	44.73341398444674	-9.992788557648113	0	60.14504018188058	1.049728979918105	-4.998409921265815	0	0	44.73341398444674	-9.992788557648113	0	60.14504018188058	1.049728979918105	-4.998409921265815	0	0	-3.392378830224338	-7.336147464858214	-5.894030181563915	-2.297021495062834	-15.29102918364229	2.245849827984671	10.63426693763569	44.99031303272164	0	-9.728478597031645e-71	0	-13.69427453443092	0	75.00982599325567	44.99031303272164	0	-9.728478597031645e-71
86	-1.288521915330154	0.3399691789472863	-10.70655032320914	0	0.9399999999999999	0	44.73751902304006	-9.993048433024207	0	60.14279473278881	1.049689789438268	-4.998478016954162	0	0	44.73751902304006	-9.993048433024207	0	60.14279473278881	1.049689789438268	-4.998478016954162	0	0	-1.216071391293253	-5.439822229307859	-3.082034142238725	0.02330827278429576	-13.14372841540495	4.341394225508163	12.15179049908226	44.99061222837976	0	0	0	-13.70661930025618	0	75.00967739629273	44.99061222837976	0	0
87	0.8629959001401249	0.8361571258168154	-8.721012286029049	0	0.9399999999999999	0	44.74426082728197	-9.993470623574684	0	60.13910940075588	1.049625468260264	-4.998588293685242	0	0	44.74426082728197	-9.993470623574684	0	60.13910940075588	1.049625468260264	-4.998588293685242	0	0	0.7599593609347652	-4.433611853943338	-1.412831923666769	2.07381987115329	-11.98491411929439	5.341992808391473	19.44288161769845	44.99109950238635	0	0	0	-13.7269722957045	0	75.00943335185895	44.99109950238635	0	0
88	4.394429853895086	0.489909014002292	-7.37820666702575	0	0.9399999999999999	0	44.75050427601188	-9.993848099154841	0	60.13570059161057	1.049565973317106	-4.998685684519374	0	0	44.75050427601188	-9.993848099154841	0	60.13570059161057	1.049565973317106	-4.998685684519374	0	0	4.260392611421189	-4.074581502466093	-0.4642080375174877	5.615475074494836	-11.51317246595859	5.398204052936562	27.9296300986408	44.99153915012458	0	0	0	-13.74599964025382	0	75.00920734713648	44.99153915012458	0	0
89	8.515857838218118	0.350020880783119	-5.959786951116711	0	0.9399999999999999	0	44.75271309496731	-9.993976473694639	0	60.13449790761194	1.049544982521469	-4.998718340081817	0	0	44.75271309496731	-9.993976473694639	0	60.13449790761194	1.049544982521469	-4.998718340081817	0	0	8.370005165603533	-3.560427006919747	0.5847511928833768	9.801136582471678	-10.91811846885516	5.499055868224195	16.30326255743446	44.99169023791008	0	0	0	-13.75279713231469	0	75.00912739072818	44.99169023791008	0	0
90	7.632115926592782	1.53169692827801	-5.942226954953253	0	0.9399999999999999	0	44.75426512653448	-9.994071971601597	0	60.13366668157434	1.049530474890285	-4.998743096432856	0	0	44.75426512653448	-9.994071971601597	0	60.13366668157434	1.049530474890285	-4.998743096432856	0	0	7.362183360709634	-2.420738705584585	0.4861159125400661	8.783607838089249	-9.762404732649893	5.384861300348705	2.061524889031217	44.9918010224321	0	0	0	-13.75749890750664	0	75.00907120922018	44.9918010224321	0	0
91	3.875234631767692	2.96294947786641	-6.302907306923494	0	0.9399999999999999	0	44.75742306907559	-9.994251101039165	0	60.13194295175722	1.049500390129561	-4.99878829071109	0	0	44.75742306907559	-9.994251101039165	0	60.13194295175722	1.049500390129561	-4.99878829071109	0	0	3.491602439831242	-1.377306813146365	0.1022808183088714	4.893850279961499	-8.731476712194794	5.462383058975053	0.1574482267360396	44.9920131383077	0	8.082103817231297e-36	0	-13.76728678546725	0	75.00895689572096	44.9920131383077	0	8.082103817231297e-36
92	2.88017106650147	4.26795716466806	-5.907851882094582	0	0.9399999999999999	0	44.75832056721103	-9.994301020514245	0	60.1314542296907	1.049491860320373	-4.998800796083168	0	0	44.75832056721103	-9.994301020514245	0	60.1314542296907	1.049491860320373	-4.998800796083168	0	0	2.339977627888041	-0.1553275615623261	0.430772590718131	3.749728829668416	-7.389966726278488	5.835269724274442	1.133712577974618	44.99207256061808	0	0	0	-13.7700816048426	0	75.0089244074247	44.99207256061808	0	0
93	2.531854626381639	5.569986729855507	-5.537637142365446	0	0.9399999999999999	0	44.75946001775268	-9.994363893616086	0	60.13083195956265	1.049480999657802	-4.998816513971245	0	0	44.75946001775268	-9.994363893616086	0	60.13083195956265	1.049480999657802	-4.998816513971245	0	0	1.833106034945219	1.131909921650912	0.7291537721713823	3.248706838088241	-6.020634963254876	6.090923207840468	0.07494157976360087	44.99214753167592	0	-4.947079676908836e-49	0	-13.773640564809	0	75.00888316075236	44.99214753167592	0	-4.947079676908836e-49
